. 
 
http://www.torrenting.com          :     Once & For all ;)


               www . Torrenting . Com 

(((((((((((((= Enjoy No RAR releases =))))))))))))))))))))


...................................NFO:....................................

.[IMG]http://img853.imageshack.us/img853/6051/00362781482697catl500.jpg[/IMG]


[color=blue][size=5][b]The.Family.Tree.2011.BDRip.XVID.AC3.HQ.Hive-CM8[/b][/size][/color]


[b]Thx Hive

CM8 Doing It Right The First Time :D


Source: Bluray

Video: 720x304 @bitrate 1700 2pass
Audio: English AC3 5.1 @384
Sample: Yes, included
Subs: Yes, English in srt /subs[/b]
 
http://www.imdb.com/title/tt1175713/


General
Complete name                  : The.Family.Tree.2011.BDRip.XVID.AC3.HQ.Hive-CM8.avi
Format                         : AVI
Format/Info                    : Audio Video Interleave
File size                      : 1.32 GiB
Duration                       : 1h 30mn
Overall bit rate               : 2 093 Kbps
Writing application            : Nandub v1.0rc2
Writing library                : Nandub build 1853/release

Video
ID                             : 0
Format                         : MPEG-4 Visual
Format profile                 : Advanced Simple@L5
Format settings, BVOP          : 1
Format settings, QPel          : Yes
Format settings, GMC           : No warppoints
Format settings, Matrix        : Default (H.263)
Muxing mode                    : Packed bitstream
Codec ID                       : XVID
Codec ID/Hint                  : XviD
Duration                       : 1h 30mn
Bit rate                       : 1 700 Kbps
Width                          : 720 pixels
Height                         : 304 pixels
Display aspect ratio           : 2.35:1
Frame rate                     : 23.976 fps
Color space                    : YUV
Chroma subsampling             : 4:2:0
Bit depth                      : 8 bits
Scan type                      : Progressive
Compression mode               : Lossy
Bits/(Pixel*Frame)             : 0.324
Stream size                    : 1.07 GiB (81%)
Writing library                : XviD 1.2.1 (UTC 2008-12-04)

Audio
ID                             : 1
Format                         : AC-3
Format/Info                    : Audio Coding 3
Mode extension                 : CM (complete main)
Codec ID                       : 2000
Duration                       : 1h 30mn
Bit rate mode                  : Constant
Bit rate                       : 384 Kbps
Channel(s)                     : 6 channels
Channel positions              : Front: L C R, Side: L R, LFE
Sampling rate                  : 48.0 KHz
Bit depth                      : 16 bits
Compression mode               : Lossy
Stream size                    : 248 MiB (18%)
Alignment                      : Split accross interleaves
Interleave, duration           : 42 ms (1.00 video frame)
Interleave, preload duration   : 500 ms


Plot:
A mother and wife stricken with memory loss allows a dysfunctional family
a second chance at harmony and happiness.


Cast:
Christina Hendricks   ...    Alicia
Dermot Mulroney       ...    Jack Burnett
Gabrielle Anwar       ...    Nina
Hope Davis            ...    Bunnie Burnett


[img]http://img851.imageshack.us/img851/8356/28278464.png[/img]
[img]http://img834.imageshack.us/img834/2996/trtrzx.png[/img]
[img]http://img824.imageshack.us/img824/509/trtrtrm.png[/img]
[img]http://img46.imageshack.us/img46/1661/trtrtrtrm.png[/img]
[img]http://img829.imageshack.us/img829/6236/trtrtrtrtr.png[/img]
[img]http://img847.imageshack.us/img847/7357/trtrtrtrttrr.png[/img]
[img]http://img69.imageshack.us/img69/1043/trtrtrtrttrtrr.png[/img]
[img]http://img269.imageshack.us/img269/7730/trtrtrtrttrtrtrr.png[/img]



Greetz

ViSiON,SPK,SANTi,3LT0N,FUSiON,YanKeeS,MAGNET,THC,LKRG,T0XiC,Feel-Free
FANTASIA-PLAY,FANTASIA-M,FLAWL3SS,WBZ,ZMG,BHRG,NOVA,D2U,Vik,SAFC
Rapeseed,goldadvance,MEMORY100,KaN1vE,Unevano,Pinnz,Wayne
Mr Hive,and most P2P groups
Great Work Guys :D

LOOKING FOR ANYTHING YOU WANT TO LOOK AND SOUND BETTER

CM8@hushmail.com